<svg xmlns="http://www.w3.org/2000/svg" viewBox="0 0 32 32" width="100%" height="100%" shape-rendering="crispEdges">
  <defs>
    <pattern id="scan" patternUnits="userSpaceOnUse" width="2" height="2">
      <rect width="2" height="1" fill="#000000" fill-opacity="0.18"/>
    </pattern>
    <radialGradient id="halo" cx="50%" cy="50%" r="55%">
      <stop offset="0%"  stop-color="#ffffff" stop-opacity="0.55"/>
      <stop offset="35%" stop-color="#d787ff" stop-opacity="0.30"/>
      <stop offset="70%" stop-color="#005fff" stop-opacity="0.10"/>
      <stop offset="100%" stop-color="#005fff" stop-opacity="0"/>
    </radialGradient>
    <clipPath id="screen-clip"><rect width="32" height="32" rx="6"/></clipPath>
    
  </defs>
  <g clip-path="url(#screen-clip)">
    <rect width="32" height="32" fill="#22253D"/>
    <g opacity="0">
      <g fill="#ff5050"><rect x="7" y="3.5" width="3" height="5"/><rect x="10" y="3.5" width="3" height="5"/><rect x="13" y="3.5" width="3" height="5"/><rect x="16" y="3.5" width="3" height="5"/><rect x="19" y="3.5" width="3" height="5"/><rect x="22" y="3.5" width="3" height="5"/><rect x="25" y="3.5" width="3" height="5"/><rect x="4" y="8.5" width="3" height="5"/><rect x="7" y="8.5" width="3" height="5"/><rect x="7" y="13.5" width="3" height="5"/><rect x="10" y="13.5" width="3" height="5"/><rect x="13" y="13.5" width="3" height="5"/><rect x="16" y="13.5" width="3" height="5"/><rect x="19" y="13.5" width="3" height="5"/><rect x="22" y="13.5" width="3" height="5"/><rect x="25" y="13.5" width="3" height="5"/><rect x="22" y="18.5" width="3" height="5"/><rect x="25" y="18.5" width="3" height="5"/><rect x="4" y="23.5" width="3" height="5"/><rect x="7" y="23.5" width="3" height="5"/><rect x="10" y="23.5" width="3" height="5"/><rect x="13" y="23.5" width="3" height="5"/><rect x="16" y="23.5" width="3" height="5"/><rect x="19" y="23.5" width="3" height="5"/><rect x="22" y="23.5" width="3" height="5"/><rect x="25" y="23.5" width="3" height="5"/></g>
      <animate attributeName="opacity" dur="5s" repeatCount="indefinite"
               keyTimes="0;0.20;0.21;0.24;0.27;0.45;0.46;0.49;0.52;0.70;0.71;0.74;0.77;1" values="0;0;0.85;0.85;0.85;0;0;0.85;0.85;0;0;0.85;0.85;0" calcMode="discrete"/>
      <animateTransform attributeName="transform" type="translate"
               dur="5s" repeatCount="indefinite"
               keyTimes="0;0.20;0.21;0.24;0.27;0.45;0.46;0.49;0.52;0.70;0.71;0.74;0.77;1"
               values="0,0;0,0;-2,0;1,0;-1.5,0;0,0;0,0;-2,0;1,0;0,0;0,0;-2,0;1,0;0,0"
               calcMode="discrete"/>
    </g>
    <g opacity="0">
      <g fill="#50c8ff"><rect x="7" y="3.5" width="3" height="5"/><rect x="10" y="3.5" width="3" height="5"/><rect x="13" y="3.5" width="3" height="5"/><rect x="16" y="3.5" width="3" height="5"/><rect x="19" y="3.5" width="3" height="5"/><rect x="22" y="3.5" width="3" height="5"/><rect x="25" y="3.5" width="3" height="5"/><rect x="4" y="8.5" width="3" height="5"/><rect x="7" y="8.5" width="3" height="5"/><rect x="7" y="13.5" width="3" height="5"/><rect x="10" y="13.5" width="3" height="5"/><rect x="13" y="13.5" width="3" height="5"/><rect x="16" y="13.5" width="3" height="5"/><rect x="19" y="13.5" width="3" height="5"/><rect x="22" y="13.5" width="3" height="5"/><rect x="25" y="13.5" width="3" height="5"/><rect x="22" y="18.5" width="3" height="5"/><rect x="25" y="18.5" width="3" height="5"/><rect x="4" y="23.5" width="3" height="5"/><rect x="7" y="23.5" width="3" height="5"/><rect x="10" y="23.5" width="3" height="5"/><rect x="13" y="23.5" width="3" height="5"/><rect x="16" y="23.5" width="3" height="5"/><rect x="19" y="23.5" width="3" height="5"/><rect x="22" y="23.5" width="3" height="5"/><rect x="25" y="23.5" width="3" height="5"/></g>
      <animate attributeName="opacity" dur="5s" repeatCount="indefinite"
               keyTimes="0;0.20;0.21;0.24;0.27;0.45;0.46;0.49;0.52;0.70;0.71;0.74;0.77;1" values="0;0;0.85;0.85;0.85;0;0;0.85;0.85;0;0;0.85;0.85;0" calcMode="discrete"/>
      <animateTransform attributeName="transform" type="translate"
               dur="5s" repeatCount="indefinite"
               keyTimes="0;0.20;0.21;0.24;0.27;0.45;0.46;0.49;0.52;0.70;0.71;0.74;0.77;1"
               values="0,0;0,0;2,0;-1,0;1.5,0;0,0;0,0;2,0;-1,0;0,0;0,0;2,0;-1,0;0,0"
               calcMode="discrete"/>
    </g>
    <g fill="#ffffff"><rect x="7" y="3.5" width="3" height="5"/><rect x="10" y="3.5" width="3" height="5"/><rect x="13" y="3.5" width="3" height="5"/><rect x="16" y="3.5" width="3" height="5"/><rect x="19" y="3.5" width="3" height="5"/><rect x="22" y="3.5" width="3" height="5"/><rect x="25" y="3.5" width="3" height="5"/></g>
  <g fill="#d787ff"><rect x="4" y="8.5" width="3" height="5"/><rect x="7" y="8.5" width="3" height="5"/></g>
  <g fill="#8787ff"><rect x="7" y="13.5" width="3" height="5"/><rect x="10" y="13.5" width="3" height="5"/><rect x="13" y="13.5" width="3" height="5"/><rect x="16" y="13.5" width="3" height="5"/><rect x="19" y="13.5" width="3" height="5"/><rect x="22" y="13.5" width="3" height="5"/><rect x="25" y="13.5" width="3" height="5"/></g>
  <g fill="#875fff"><rect x="22" y="18.5" width="3" height="5"/><rect x="25" y="18.5" width="3" height="5"/></g>
  <g fill="#005fff"><rect x="4" y="23.5" width="3" height="5"/><rect x="7" y="23.5" width="3" height="5"/><rect x="10" y="23.5" width="3" height="5"/><rect x="13" y="23.5" width="3" height="5"/><rect x="16" y="23.5" width="3" height="5"/><rect x="19" y="23.5" width="3" height="5"/><rect x="22" y="23.5" width="3" height="5"/><rect x="25" y="23.5" width="3" height="5"/></g>
    <rect width="32" height="32" fill="url(#scan)"/>
  </g>
</svg>
